# xmcd
#
# Track frame offsets:
# 150
# 13162
# 27164
# 40422
# 52334
# 64744
# 78937
# 91964
# 106334
# 120542
# 133150
# 146775
# 160060
# 170552
# 183823
# 198018
# 211171
# 224826
# 237202
# 251371
# 260594
# 272349
# 283924
# 295505
#
# Disc length: 4108 seconds
#
#
# Revision: 0
# Processed by: cddbd v1.5.2PL0 Copyright (c) Steve Scherf et al.
# Submitted via: FreeRIP 2.944 
#
DISCID=63100a18
DTITLE=JB Lenoir - Eisenhower Blues
DYEAR=2007
DGENRE=Blues
TTITLE0=Eisenhower Blues
TTITLE1=I'll die tryin'
TTITLE2=People are meddling (in our affairs)
TTITLE3=Carrie Lee
TTITLE4=Deep in debt Blues
TTITLE5=I lost my baby
TTITLE6=My baby told me
TTITLE7=I'm in Korea
TTITLE8=Tax paying Blues
TTITLE9=The mountain
TTITLE10=How can I leave
TTITLE11=Korea Blues
TTITLE12=Mamma talk to your daughter
TTITLE13=How much more
TTITLE14=What have I done
TTITLE15=The mojo (boogie)
TTITLE16=Louise
TTITLE17=I want my baby
TTITLE18=Man watch your woman
TTITLE19=Mama, your daughter's gonna miss me
TTITLE20=Let's roll
TTITLE21=If I give my love to you
TTITLE22=Fine girls
TTITLE23=(I wanna) play a little while
EXTD=
EXTT0=
EXTT1=
EXTT2=
EXTT3=
EXTT4=
EXTT5=
EXTT6=
EXTT7=
EXTT8=
EXTT9=
EXTT10=
EXTT11=
EXTT12=
EXTT13=
EXTT14=
EXTT15=
EXTT16=
EXTT17=
EXTT18=
EXTT19=
EXTT20=
EXTT21=
EXTT22=
EXTT23=
PLAYORDER=
